<svg xmlns="http://www.w3.org/2000/svg" viewBox="0 0 800 220" width="800" height="220"><defs>
  <marker id="stArrow" markerWidth="10" markerHeight="10" refX="8" refY="3" orient="auto" markerUnits="strokeWidth">
    <path d="M0,0 L0,6 L8,3 z" fill="#475569"/>
  </marker>
</defs><rect x="0" y="0" width="800" height="220" fill="#f8fafc"/><text x="400.0" y="30" text-anchor="middle" font-family="Segoe UI, Arial, sans-serif" font-size="19" font-weight="800" fill="#0f172a">State — Agent Identity Lifecycle</text><text x="400.0" y="50" text-anchor="middle" font-family="Segoe UI, Arial, sans-serif" font-size="11" fill="#64748b">02-domain.md — Agent lifecycle differs from Human lifecycle</text>
<g>
  <rect x="43" y="93" width="190" height="60" rx="10" fill="#000" opacity="0.12"/>
  <rect x="40" y="90" width="190" height="60" rx="10" fill="#166534" stroke="#22c55e" stroke-width="2.2"/>
  <text x="135.0" y="125.0" text-anchor="middle" font-family="Segoe UI, Arial, sans-serif" font-size="13.5" font-weight="700" fill="#ffffff">ACTIVE</text>
</g>
<g>
  <rect x="303" y="93" width="190" height="60" rx="10" fill="#000" opacity="0.12"/>
  <rect x="300" y="90" width="190" height="60" rx="10" fill="#78350f" stroke="#f59e0b" stroke-width="2.2"/>
  <text x="395.0" y="125.0" text-anchor="middle" font-family="Segoe UI, Arial, sans-serif" font-size="13.5" font-weight="700" fill="#ffffff">DISABLED</text>
</g>
<g>
  <rect x="563" y="93" width="190" height="60" rx="10" fill="#000" opacity="0.12"/>
  <rect x="560" y="90" width="190" height="60" rx="10" fill="#334155" stroke="#64748b" stroke-width="2.2"/>
  <text x="655.0" y="125.0" text-anchor="middle" font-family="Segoe UI, Arial, sans-serif" font-size="13.5" font-weight="700" fill="#ffffff">ARCHIVED</text>
</g>
<path d="M 230 120 L 300 120" stroke="#475569" stroke-width="2" fill="none" marker-end="url(#stArrow)"/>
<rect x="210.0" y="109.0" width="110" height="18" fill="#ffffff" stroke="#475569" stroke-width="0.8" rx="4"/>
<text x="265.0" y="123.0" text-anchor="middle" font-size="9.5" fill="#475569" font-family="Segoe UI, Arial, sans-serif" font-weight="700">Owner/Admin disables</text>

<path d="M 490 120 L 560 120" stroke="#475569" stroke-width="2" fill="none" marker-end="url(#stArrow)"/>
<rect x="470.0" y="109.0" width="110" height="18" fill="#ffffff" stroke="#475569" stroke-width="0.8" rx="4"/>
<text x="525.0" y="123.0" text-anchor="middle" font-size="9.5" fill="#475569" font-family="Segoe UI, Arial, sans-serif" font-weight="700">Archive Agent</text>
</svg>